<?xml version="1.0" encoding="UTF-8" standalone="no"?>
<svg xmlns="http://www.w3.org/2000/svg"
     id="svg878"
     xml:space="preserve"
     viewBox="0 0 128 128"
     height="64px"
     width="64px"
     version="1.0">

    <g transform="matrix(0.44355332,0,0,0.44355332,-2.8271465e-4,-1.5335583e-5)" id="g1031">
        <g id="g975">
            <path d="M 283.127,57.184 260.256,35.053 c -7.101,-6.874 -18.438,-6.683 -25.311,0.424 L 113.442,161.085 c -6.88,7.107 -19.404,8.879 -27.985,3.962 L 42.633,140.505 c -8.568,-4.917 -19.512,-1.951 -24.428,6.629 l -15.83,27.615 c -4.917,8.58 -1.951,19.518 6.623,24.434 0,0 103.889,59.46 103.931,59.376 0.048,-0.084 137.25,-141.57 170.617,-176.058 6.873,-7.112 6.682,-18.449 -0.419,-25.317 z"
                  id="path973"
                  style="fill:#366732"/>
        </g>
    </g>
</svg>