<?xml version="1.0" encoding="utf-8"?>

<svg version="1.1"
     xmlns="http://www.w3.org/2000/svg"
     xmlns:xlink="http://www.w3.org/1999/xlink"
     x="0px"
     y="0px"
     viewBox="0 0 1000 1000"
     enable-background="new 0 0 1000 1000"
     xml:space="preserve">
    <g>
        <path fill="#a50804" d="M964.5,92.8c34,34,34,89.6,0,123.5L216.3,964.5c-34,34-89.6,34-123.5,0l-57.3-57.3c-34-34-34-89.6,0-123.5L783.7,35.5c34-34,89.6-34,123.5,0L964.5,92.8L964.5,92.8z M92.8,35.5c34-34,89.6-34,123.5,0l748.2,748.2c34,34,34,89.6,0,123.5l-57.3,57.3c-34,34-89.6,34-123.5,0L35.5,216.3c-34-34-34-89.6,0-123.5L92.8,35.5L92.8,35.5z"/>
    </g>
</svg>
